<svg width="20" height="21" viewBox="0 0 20 21" fill="none" xmlns="http://www.w3.org/2000/svg">
<path d="M10 0.171875C4.579 0.171875 0 4.75187 0 10.1719C0 15.5919 4.579 20.1719 10 20.1719C15.421 20.1719 20 15.5919 20 10.1719C20 4.75187 15.421 0.171875 10 0.171875ZM10 13.1719C10.992 13.1719 11.85 12.9069 12.293 12.4639L13.707 13.8789C12.581 15.0039 10.901 15.1719 10 15.1719C7.243 15.1719 5 12.9289 5 10.1719C5 7.41488 7.243 5.17188 10 5.17188C10.901 5.17188 12.582 5.33988 13.707 6.46488L12.293 7.87887C11.851 7.43587 10.993 7.17188 10 7.17188C8.374 7.17188 7 8.54587 7 10.1719C7 11.7979 8.374 13.1719 10 13.1719Z" fill="#1C1B1F"/>
</svg>
