<svg width="20" height="21" viewBox="0 0 20 21" fill="none" xmlns="http://www.w3.org/2000/svg">
<path d="M10 0.201172C4.579 0.201172 0 4.78117 0 10.2012C0 15.6212 4.579 20.2012 10 20.2012C15.421 20.2012 20 15.6212 20 10.2012C20 4.78117 15.421 0.201172 10 0.201172ZM10 13.2012C10.992 13.2012 11.85 12.9362 12.293 12.4932L13.707 13.9082C12.581 15.0332 10.901 15.2012 10 15.2012C7.243 15.2012 5 12.9582 5 10.2012C5 7.44417 7.243 5.20117 10 5.20117C10.901 5.20117 12.582 5.36917 13.707 6.49417L12.293 7.90817C11.851 7.46517 10.993 7.20117 10 7.20117C8.374 7.20117 7 8.57517 7 10.2012C7 11.8272 8.374 13.2012 10 13.2012Z" fill="#E6E1E5"/>
</svg>
