<svg width="24" height="25" viewBox="0 0 24 25" fill="none" xmlns="http://www.w3.org/2000/svg">
<path d="M6.93994 5.6719C6.93968 6.20233 6.72871 6.71093 6.35345 7.08582C5.97819 7.4607 5.46937 7.67116 4.93894 7.6709C4.40851 7.67063 3.89991 7.45967 3.52502 7.08441C3.15014 6.70914 2.93968 6.20033 2.93994 5.6699C2.94021 5.13947 3.15117 4.63086 3.52644 4.25598C3.9017 3.88109 4.41051 3.67063 4.94094 3.6709C5.47137 3.67116 5.97998 3.88213 6.35486 4.25739C6.72975 4.63265 6.94021 5.14147 6.93994 5.6719ZM6.99994 9.1519H2.99994V21.6719H6.99994V9.1519ZM13.3199 9.1519H9.33994V21.6719H13.2799V15.1019C13.2799 11.4419 18.0499 11.1019 18.0499 15.1019V21.6719H21.9999V13.7419C21.9999 7.5719 14.9399 7.8019 13.2799 10.8319L13.3199 9.1519Z" fill="#1C1B1F"/>
</svg>
