<svg width="20" height="19" viewBox="0 0 20 19" fill="none" xmlns="http://www.w3.org/2000/svg">
<path d="M4.94 2.6719C4.93974 3.20233 4.72877 3.71093 4.35351 4.08582C3.97825 4.4607 3.46944 4.67116 2.939 4.6709C2.40857 4.67063 1.89997 4.45967 1.52508 4.08441C1.1502 3.70914 0.939737 3.20033 0.940003 2.6699C0.940268 2.13947 1.15124 1.63086 1.5265 1.25598C1.90176 0.881093 2.41057 0.670633 2.941 0.670899C3.47144 0.671164 3.98004 0.882132 4.35492 1.25739C4.72981 1.63265 4.94027 2.14147 4.94 2.6719ZM5 6.1519H1V18.6719H5V6.1519ZM11.32 6.1519H7.34V18.6719H11.28V12.1019C11.28 8.4419 16.05 8.1019 16.05 12.1019V18.6719H20V10.7419C20 4.5719 12.94 4.8019 11.28 7.8319L11.32 6.1519Z" fill="#E6E1E5"/>
</svg>
