<svg width="24" height="25" viewBox="0 0 24 25" fill="none" xmlns="http://www.w3.org/2000/svg">
<path d="M4 20.6719C3.45 20.6719 2.97933 20.4762 2.588 20.0849C2.196 19.6929 2 19.2219 2 18.6719V6.67188C2 6.12188 2.196 5.65121 2.588 5.25987C2.97933 4.86787 3.45 4.67188 4 4.67188H20C20.55 4.67188 21.021 4.86787 21.413 5.25987C21.8043 5.65121 22 6.12188 22 6.67188V18.6719C22 19.2219 21.8043 19.6929 21.413 20.0849C21.021 20.4762 20.55 20.6719 20 20.6719H4ZM12 13.6719L20 8.67188V6.67188L12 11.6719L4 6.67188V8.67188L12 13.6719Z" fill="#1C1B1F"/>
</svg>
