<svg width="20" height="17" viewBox="0 0 20 17" fill="none" xmlns="http://www.w3.org/2000/svg">
<path d="M2 16.6719C1.45 16.6719 0.979333 16.4762 0.588 16.0849C0.196 15.6929 0 15.2219 0 14.6719V2.67188C0 2.12188 0.196 1.65121 0.588 1.25987C0.979333 0.867875 1.45 0.671875 2 0.671875H18C18.55 0.671875 19.021 0.867875 19.413 1.25987C19.8043 1.65121 20 2.12188 20 2.67188V14.6719C20 15.2219 19.8043 15.6929 19.413 16.0849C19.021 16.4762 18.55 16.6719 18 16.6719H2ZM10 9.67188L18 4.67188V2.67188L10 7.67188L2 2.67188V4.67188L10 9.67188Z" fill="#E6E1E5"/>
</svg>
