<svg width="24" height="25" viewBox="0 0 24 25" fill="none" xmlns="http://www.w3.org/2000/svg">
<path d="M23.25 5.8047C22.406 6.17142 21.513 6.41303 20.5992 6.52188C21.5595 5.95956 22.2817 5.06621 22.6303 4.00938C21.7224 4.54029 20.7307 4.91279 19.6978 5.11095C19.2629 4.6551 18.7397 4.29246 18.1603 4.04508C17.5808 3.79769 16.9571 3.67072 16.327 3.67188C13.7761 3.67188 11.7117 5.70626 11.7117 8.21407C11.7099 8.5629 11.7499 8.91069 11.8308 9.25001C10.0016 9.16426 8.2104 8.69763 6.57187 7.87997C4.93333 7.06232 3.48351 5.91164 2.31516 4.50157C1.90527 5.19256 1.6885 5.98097 1.6875 6.78438C1.6875 8.35938 2.50922 9.75157 3.75 10.5672C3.01487 10.5497 2.29481 10.3552 1.65094 10V10.0563C1.65094 12.2594 3.24469 14.0922 5.35406 14.5094C4.9574 14.6151 4.54864 14.6687 4.13812 14.6688C3.84683 14.6693 3.5562 14.641 3.27047 14.5844C3.85687 16.3891 5.56359 17.7016 7.58531 17.7391C5.94252 19.0051 3.9256 19.6894 1.85156 19.6844C1.48341 19.6838 1.11561 19.6619 0.75 19.6188C2.85993 20.966 5.31255 21.6787 7.81594 21.6719C16.3172 21.6719 20.9616 14.7484 20.9616 8.74376C20.9616 8.54688 20.9564 8.35001 20.947 8.15782C21.8485 7.5166 22.6283 6.71975 23.25 5.8047Z" fill="#1C1B1F"/>
</svg>
