<svg width="24" height="19" viewBox="0 0 24 19" fill="none" xmlns="http://www.w3.org/2000/svg">
<path d="M23.25 2.8047C22.406 3.17142 21.513 3.41303 20.5992 3.52188C21.5595 2.95956 22.2817 2.06621 22.6303 1.00938C21.7224 1.54029 20.7307 1.91279 19.6978 2.11095C19.2629 1.6551 18.7397 1.29246 18.1603 1.04508C17.5808 0.797689 16.9571 0.670718 16.327 0.671883C13.7761 0.671883 11.7117 2.70626 11.7117 5.21407C11.7099 5.5629 11.7499 5.91069 11.8308 6.25001C10.0016 6.16426 8.2104 5.69763 6.57187 4.87997C4.93333 4.06232 3.48351 2.91164 2.31516 1.50157C1.90527 2.19256 1.6885 2.98097 1.6875 3.78438C1.6875 5.35938 2.50922 6.75157 3.75 7.5672C3.01487 7.54975 2.29481 7.35518 1.65094 7.00001V7.05626C1.65094 9.25938 3.24469 11.0922 5.35406 11.5094C4.9574 11.6151 4.54864 11.6687 4.13812 11.6688C3.84683 11.6693 3.5562 11.641 3.27047 11.5844C3.85687 13.3891 5.56359 14.7016 7.58531 14.7391C5.94252 16.0051 3.9256 16.6894 1.85156 16.6844C1.48341 16.6838 1.11561 16.6619 0.75 16.6188C2.85993 17.966 5.31255 18.6787 7.81594 18.6719C16.3172 18.6719 20.9616 11.7484 20.9616 5.74376C20.9616 5.54688 20.9564 5.35001 20.947 5.15782C21.8485 4.5166 22.6283 3.71975 23.25 2.8047Z" fill="#E6E1E5"/>
</svg>
